<?xml version="1.0" encoding="iso-8859-1"?>
<!-- Generator: Adobe Illustrator 19.0.0, SVG Export Plug-In . SVG Version: 6.00 Build 0)  -->
<svg version="1.1" id="Capa_1" xmlns="http://www.w3.org/2000/svg" xmlns:xlink="http://www.w3.org/1999/xlink" x="0px" y="0px"
	 viewBox="0 0 480 480" style="enable-background:new 0 0 480 480;" xml:space="preserve">
<path id="XMLID_1484_" d="M468.303,411.716l-77.784-77.783c0,0,0,0-0.001,0c-13.156-13.156-33.272-15.214-48.605-6.175l-91.902-91.9
	V150c0-22.056-17.945-40-40.002-40s-40.002,17.944-40.002,40v5.858L17.072,2.928C14.213,0.067,9.911-0.784,6.173,0.76
	C2.437,2.308,0,5.954,0,9.999V255c0,52.383,42.619,94.999,95.004,94.999s95.004-42.616,95.004-94.999v-50.858l40.002,40v67.571
	c-11.641,4.127-20.001,15.249-20.001,28.286c0,13.038,8.36,24.159,20.001,28.286V440c0,11.028-8.972,20-20.001,20
	s-20.001-8.972-20.001-20v-50c0-4.045-2.437-7.691-6.173-9.239c-3.738-1.545-8.039-0.692-10.899,2.168l-30.001,30
	c-3.905,3.905-3.905,10.237,0,14.143c3.906,3.904,10.237,3.904,14.143,0l12.929-12.929V440c0,22.056,17.945,40,40.002,40
	s40.002-17.944,40.002-40v-71.714c11.641-4.127,20-15.248,20-28.286c0-13.037-8.359-24.159-20-28.286v-47.57l77.76,77.757
	c-9.037,15.333-6.979,35.446,6.176,48.603l77.785,77.782c15.596,15.596,40.974,15.596,56.571,0
	C483.899,452.688,483.899,427.311,468.303,411.716z M170.007,255c0,41.355-33.646,74.999-75.003,74.999S20.001,296.355,20.001,255
	L20,34.141l150.007,150.002V255z M190.008,175.858V150c0-11.028,8.972-20,20.001-20s20.001,8.972,20.001,20v65.859L190.008,175.858z
	 M240.01,349.999c-5.514,0-10-4.486-10-10c0-5.514,4.487-10,10-10s9.999,4.486,9.999,10
	C250.009,345.513,245.524,349.999,240.01,349.999z M454.16,454.142c-7.797,7.799-20.487,7.799-28.284,0l-77.785-77.781
	c-7.776-7.776-7.798-20.416-0.066-28.219c0.022-0.021,0.044-0.044,0.066-0.065c0.021-0.022,0.044-0.045,0.065-0.066
	c7.804-7.733,20.445-7.709,28.22,0.065l77.785,77.783C461.958,433.656,461.958,446.344,454.16,454.142z"/>
<g>
</g>
<g>
</g>
<g>
</g>
<g>
</g>
<g>
</g>
<g>
</g>
<g>
</g>
<g>
</g>
<g>
</g>
<g>
</g>
<g>
</g>
<g>
</g>
<g>
</g>
<g>
</g>
<g>
</g>
</svg>
