<?xml version="1.0" encoding="iso-8859-1"?>
<!-- Generator: Adobe Illustrator 17.1.0, SVG Export Plug-In . SVG Version: 6.00 Build 0)  -->
<!DOCTYPE svg PUBLIC "-//W3C//DTD SVG 1.1//EN" "http://www.w3.org/Graphics/SVG/1.1/DTD/svg11.dtd">
<svg version="1.1" id="Capa_1" xmlns="http://www.w3.org/2000/svg" xmlns:xlink="http://www.w3.org/1999/xlink" x="0px" y="0px"
	fill="white" stroke="currentColor"  viewBox="0 0 296.598 296.598" style="enable-background:new 0 0 296.598 296.598;" xml:space="preserve">
<g>
	<path d="M241.41,198.113l-11.331-60.992c-3.874-20.85-20.966-41.189-40.998-50.757c1.664,26.7-7.659,53.964-28.017,74.323
		c-18.822,18.819-43.546,28.229-68.27,28.229c-2.178,0-4.354-0.1-6.528-0.246c9.754,20.121,30.27,37.467,51.119,41.601l60.82,12.059
		c-4.124,18.812,1.11,39.266,15.74,53.895l82.652-82.65C281.633,198.607,260.573,193.454,241.41,198.113z"/>
	<path d="M146.813,146.436c17.969-17.97,25.077-42.735,21.364-66.099l-62.61-11.633c-25.797-4.792-42.727,12.344-37.623,38.08
		l0.518,2.608c-5.137,4.761-12.077,7.68-19.616,7.68C32.98,117.073,20,104.163,20,88.295V0.373H0v87.922
		c0,26.981,21.944,48.933,48.922,48.933c8.647,0,16.77-2.265,23.828-6.217l7.271,36.673
		C103.588,171.649,128.665,164.581,146.813,146.436z M119.965,104.879c4.375-4.381,11.48-4.379,15.857,0
		c4.381,4.377,4.379,11.48-0.002,15.859c-4.375,4.379-11.48,4.379-15.855-0.002C115.586,116.359,115.586,109.256,119.965,104.879z"
		/>
</g>
<g>
</g>
<g>
</g>
<g>
</g>
<g>
</g>
<g>
</g>
<g>
</g>
<g>
</g>
<g>
</g>
<g>
</g>
<g>
</g>
<g>
</g>
<g>
</g>
<g>
</g>
<g>
</g>
<g>
</g>
</svg>
