<?xml version="1.0" encoding="iso-8859-1"?>
<!-- Generator: Adobe Illustrator 17.1.0, SVG Export Plug-In . SVG Version: 6.00 Build 0)  -->
<!DOCTYPE svg PUBLIC "-//W3C//DTD SVG 1.1//EN" "http://www.w3.org/Graphics/SVG/1.1/DTD/svg11.dtd">
<svg version="1.1" id="Capa_1" xmlns="http://www.w3.org/2000/svg" xmlns:xlink="http://www.w3.org/1999/xlink" x="0px" y="0px"
	 viewBox="0 0 295.882 295.882" style="enable-background:new 0 0 295.882 295.882;" xml:space="preserve">
<path d="M169.642,229.816h36.515c-5.058,26-28.037,46.125-55.341,46.125c-31.107,0-56.374-25.521-56.374-56.629V116.156
	c3-2.903,5-7.293,5-12.206V15.828C99.441,7.086,92.683,0,83.941,0s-15.5,7.086-15.5,15.828v88.122c0,4.913,2,9.303,5,12.206v103.156
	c0,42.221,34.731,76.569,76.952,76.569c41.719,0,76.304-34.296,76.804-76.496c0.002-0.331,0.244-38.913,0.244-39.301v-31.431
	L169.642,229.816z"/>
<g>
</g>
<g>
</g>
<g>
</g>
<g>
</g>
<g>
</g>
<g>
</g>
<g>
</g>
<g>
</g>
<g>
</g>
<g>
</g>
<g>
</g>
<g>
</g>
<g>
</g>
<g>
</g>
<g>
</g>
</svg>
